<svg version="1.1" id="Layer_1" xmlns="http://www.w3.org/2000/svg" xmlns:xlink="http://www.w3.org/1999/xlink" x="0px" y="0px"
	 width="100%" viewBox="0 0 144 155" enable-background="new 0 0 144 155" xml:space="preserve">
<path fill="#FCFCFC" opacity="1.000000" stroke="none" 
	d="
M145.000000,61.000000 
	C145.000000,93.000000 145.000000,124.500000 145.000000,156.000000 
	C97.000000,156.000000 49.000000,156.000000 1.000000,156.000000 
	C1.000000,104.333336 1.000000,52.666668 1.000000,1.000000 
	C49.000000,1.000000 97.000000,1.000000 145.000000,1.000000 
	C145.000000,20.833334 145.000000,40.666668 145.000000,61.000000 
M77.732971,68.908661 
	C87.094398,69.112755 96.455818,69.316856 105.783089,70.059647 
	C105.942612,70.378105 106.102135,70.696564 106.032196,71.915077 
	C106.051949,75.955360 106.071693,79.995644 106.044731,83.992821 
	C106.044731,83.992821 106.025269,84.053329 105.120277,84.347221 
	C103.309334,84.412170 101.498779,84.491524 99.687386,84.539551 
	C92.471382,84.730843 85.255104,84.912369 77.293228,85.508362 
	C77.293228,101.759346 77.293228,118.010330 77.293228,134.859909 
	C80.755150,134.138092 83.821442,133.624603 86.821465,132.853378 
	C111.429222,126.527359 131.682327,101.886604 132.356140,77.330864 
	C132.225616,74.558601 132.095108,71.786331 132.099060,68.162201 
	C130.853027,41.876335 108.949646,19.523605 86.539444,13.822285 
	C86.018959,13.765602 85.498466,13.708920 84.279594,13.168778 
	C81.511902,12.802500 78.744202,12.436221 75.543518,11.753181 
	C74.674782,11.781506 73.806053,11.809831 72.096222,11.556202 
	C69.746895,11.658767 67.397568,11.761331 64.580193,11.614894 
	C63.734600,11.782561 62.889004,11.950229 61.223011,11.940543 
	C60.155502,12.203712 59.087997,12.466883 57.512447,12.547560 
	C57.021835,12.735866 56.531219,12.924171 55.265087,12.998102 
	C22.458397,21.156923 2.005813,50.416241 6.759580,82.147537 
	C11.507284,113.838371 39.381802,133.573181 61.543720,134.139877 
	C61.543720,125.997902 61.543720,117.859818 61.543720,109.721725 
	C61.543720,101.462364 61.543720,93.203011 61.543720,84.466331 
	C51.520069,84.466331 42.268890,84.466331 33.054390,84.466331 
	C33.054390,79.040085 33.054390,74.113541 33.981209,69.275284 
	C42.086151,69.159737 50.191090,69.044189 59.175648,69.256187 
	C59.964275,67.775360 61.378124,66.317635 61.433857,64.809715 
	C61.681969,58.096695 61.541523,51.369308 61.541523,43.874691 
	C67.299217,44.290344 72.334312,44.653831 77.184189,45.936459 
	C77.255943,53.007812 77.327698,60.079166 77.234627,67.645859 
	C77.320442,67.797279 77.406258,67.948692 77.732971,68.908661 
z"/>
<path fill="#323031" opacity="1.000000" stroke="none" 
	d="
M75.976509,12.069942 
	C78.744202,12.436221 81.511902,12.802500 84.695526,13.641605 
	C85.721741,14.135763 86.332024,14.157094 86.942307,14.178425 
	C108.949646,19.523605 130.853027,41.876335 131.753204,68.866501 
	C131.595291,72.377083 131.783249,75.183372 131.971207,77.989662 
	C131.682327,101.886604 111.429222,126.527359 86.821465,132.853378 
	C83.821442,133.624603 80.755150,134.138092 77.293228,134.859909 
	C77.293228,118.010330 77.293228,101.759346 77.972610,85.578629 
	C86.798340,85.763710 94.945000,85.945320 103.090599,85.905960 
	C104.071777,85.901215 105.047180,84.699997 106.025269,84.053329 
	C106.025269,84.053329 106.044731,83.992821 106.474922,83.975647 
	C109.455444,81.839111 110.015236,73.271797 107.686363,71.205399 
	C107.389145,70.941681 106.745056,71.068909 106.261658,71.015022 
	C106.102135,70.696564 105.942612,70.378105 105.854309,69.409966 
	C105.949692,68.505493 105.973869,68.250702 105.705811,67.696884 
	C96.953133,67.253571 88.492706,67.109268 80.024139,66.498627 
	C80.012024,60.250191 80.160767,54.460770 79.884415,48.691711 
	C79.823959,47.429657 78.247627,46.240208 77.369408,45.017319 
	C72.334312,44.653831 67.299217,44.290344 61.541523,43.874691 
	C61.541523,51.369308 61.681969,58.096695 61.433857,64.809715 
	C61.378124,66.317635 59.964275,67.775360 58.530182,68.637756 
	C50.001282,67.733307 42.118462,67.418671 34.232521,67.249008 
	C33.853882,67.240868 33.447727,68.511734 33.054390,69.186989 
	C33.054390,74.113541 33.054390,79.040085 33.054390,84.466331 
	C42.268890,84.466331 51.520069,84.466331 61.543720,84.466331 
	C61.543720,93.203011 61.543720,101.462364 61.543720,109.721725 
	C61.543720,117.859818 61.543720,125.997902 61.543720,134.139877 
	C39.381802,133.573181 11.507284,113.838371 6.759580,82.147537 
	C2.005813,50.416241 22.458397,21.156923 55.783524,13.252985 
	C56.874805,13.248596 57.447647,12.989325 58.020489,12.730052 
	C59.087997,12.466883 60.155502,12.203712 61.834663,12.265528 
	C63.313625,12.348307 64.180931,12.106101 65.048241,11.863895 
	C67.397568,11.761331 69.746895,11.658767 72.684990,11.965940 
	C74.174675,12.273767 75.075592,12.171855 75.976509,12.069942 
M54.468853,122.333168 
	C54.957237,121.694595 55.861576,121.061958 55.870789,120.416550 
	C55.984787,112.431305 56.055046,104.442047 55.857536,96.460732 
	C55.836731,95.619942 54.041637,94.823059 52.341293,93.585228 
	C46.101921,93.449203 39.863087,93.256660 33.622986,93.197655 
	C29.667025,93.160240 26.560694,91.829124 25.426336,87.564941 
	C25.246342,80.692657 25.066347,73.820381 24.986593,66.224876 
	C26.625786,64.669731 28.264978,63.114582 30.330877,62.337765 
	C36.946125,62.525993 43.560997,62.766327 50.177254,62.813671 
	C50.772526,62.817928 51.376720,61.574989 52.505581,60.276951 
	C52.631878,55.299656 52.744236,50.321957 52.888107,45.345173 
	C53.056713,39.512543 56.408485,35.990837 62.135651,35.838326 
	C66.797081,35.714191 71.466179,35.722847 76.128502,35.825726 
	C82.452415,35.965260 85.554680,39.131126 85.642342,45.465458 
	C85.710739,50.407421 85.656044,55.351082 85.656044,60.876751 
	C92.350006,60.876751 98.472366,60.823048 104.593376,60.890888 
	C111.617233,60.968735 114.842941,64.302551 114.900787,71.418243 
	C114.927872,74.749908 114.905708,78.081978 114.903915,81.413864 
	C114.899193,90.196770 111.984978,93.142303 103.280602,93.150856 
	C97.520988,93.156509 91.761360,93.151924 86.048416,93.151924 
	C86.048416,103.827835 86.048416,113.693817 86.048416,123.802917 
	C87.120461,123.590340 87.781128,123.537872 88.387154,123.327797 
	C109.512230,116.004921 124.480408,94.540970 123.773834,72.094292 
	C123.038437,48.732002 107.965981,29.607569 86.030403,22.584049 
	C62.795731,15.144573 38.261345,24.809429 27.464146,38.565586 
	C3.103937,69.601662 15.004570,110.452179 52.377365,124.493866 
	C52.898186,123.964455 53.419010,123.435043 54.468853,122.333168 
M58.995914,54.038189 
	C59.041477,54.986675 59.087040,55.935158 59.132599,56.883644 
	C59.326195,56.879501 59.519787,56.875359 59.713379,56.871216 
	C59.713379,53.272007 59.713379,49.672798 59.713379,46.073589 
	C59.474140,46.069035 59.234905,46.064480 58.995667,46.059925 
	C58.995667,48.438843 58.995667,50.817764 58.995914,54.038189 
M59.180717,64.034119 
	C59.275051,64.438644 59.369389,64.843170 59.463726,65.247696 
	C59.583790,65.158958 59.815250,65.054985 59.805538,64.983994 
	C59.749371,64.573387 59.636314,64.170555 59.180717,64.034119 
z"/>
<path fill="#252325" opacity="1.000000" stroke="none" 
	d="
M77.276794,45.476891 
	C78.247627,46.240208 79.823959,47.429657 79.884415,48.691711 
	C80.160767,54.460770 80.012024,60.250191 79.584534,66.523094 
	C78.568520,67.059441 77.983986,67.104980 77.399452,67.150520 
	C77.327698,60.079166 77.255943,53.007812 77.276794,45.476891 
z"/>
<path fill="#353334" opacity="1.000000" stroke="none" 
	d="
M105.572769,84.200272 
	C105.047180,84.699997 104.071777,85.901215 103.090599,85.905960 
	C94.945000,85.945320 86.798340,85.763710 78.345467,85.373207 
	C85.255104,84.912369 92.471382,84.730843 99.687386,84.539551 
	C101.498779,84.491524 103.309334,84.412170 105.572769,84.200272 
z"/>
<path fill="#353334" opacity="1.000000" stroke="none" 
	d="
M105.998055,67.995903 
	C105.973869,68.250702 105.949692,68.505493 105.871384,69.140617 
	C96.455818,69.316856 87.094398,69.112755 78.121933,68.474045 
	C87.673279,68.024925 96.835663,68.010414 105.998055,67.995903 
z"/>
<path fill="#201D1F" opacity="1.000000" stroke="none" 
	d="
M33.517799,69.231140 
	C33.447727,68.511734 33.853882,67.240868 34.232521,67.249008 
	C42.118462,67.418671 50.001282,67.733307 58.090374,68.473984 
	C50.191090,69.044189 42.086151,69.159737 33.517799,69.231140 
z"/>
<path fill="#262425" opacity="1.000000" stroke="none" 
	d="
M106.146927,71.465050 
	C106.745056,71.068909 107.389145,70.941681 107.686363,71.205399 
	C110.015236,73.271797 109.455444,81.839111 106.498276,83.997208 
	C106.071693,79.995644 106.051949,75.955360 106.146927,71.465050 
z"/>
<path fill="#1D1A1C" opacity="1.000000" stroke="none" 
	d="
M105.705811,67.696884 
	C96.835663,68.010414 87.673279,68.024925 78.001480,68.069778 
	C77.406258,67.948692 77.320442,67.797279 77.317039,67.398193 
	C77.983986,67.104980 78.568520,67.059441 79.592667,66.989426 
	C88.492706,67.109268 96.953133,67.253571 105.705811,67.696884 
z"/>
<path fill="#353334" opacity="1.000000" stroke="none" 
	d="
M132.163666,77.660263 
	C131.783249,75.183372 131.595291,72.377083 131.685974,69.292435 
	C132.095108,71.786331 132.225616,74.558601 132.163666,77.660263 
z"/>
<path fill="#383637" opacity="1.000000" stroke="none" 
	d="
M75.760010,11.911562 
	C75.075592,12.171855 74.174675,12.273767 73.105537,12.106916 
	C73.806053,11.809831 74.674782,11.781506 75.760010,11.911562 
z"/>
<path fill="#383637" opacity="1.000000" stroke="none" 
	d="
M64.814217,11.739395 
	C64.180931,12.106101 63.313625,12.348307 62.244865,12.354204 
	C62.889004,11.950229 63.734600,11.782561 64.814217,11.739395 
z"/>
<path fill="#383637" opacity="1.000000" stroke="none" 
	d="
M86.740875,14.000355 
	C86.332024,14.157094 85.721741,14.135763 85.044724,13.883335 
	C85.498466,13.708920 86.018959,13.765602 86.740875,14.000355 
z"/>
<path fill="#383637" opacity="1.000000" stroke="none" 
	d="
M57.766468,12.638805 
	C57.447647,12.989325 56.874805,13.248596 56.171288,13.310173 
	C56.531219,12.924171 57.021835,12.735866 57.766468,12.638805 
z"/>
<path fill="#F7F7F7" opacity="1.000000" stroke="none" 
	d="
M52.019577,124.047806 
	C15.004570,110.452179 3.103937,69.601662 27.464146,38.565586 
	C38.261345,24.809429 62.795731,15.144573 86.030403,22.584049 
	C107.965981,29.607569 123.038437,48.732002 123.773834,72.094292 
	C124.480408,94.540970 109.512230,116.004921 88.387154,123.327797 
	C87.781128,123.537872 87.120461,123.590340 86.048416,123.802917 
	C86.048416,113.693817 86.048416,103.827835 86.048416,93.151924 
	C91.761360,93.151924 97.520988,93.156509 103.280602,93.150856 
	C111.984978,93.142303 114.899193,90.196770 114.903915,81.413864 
	C114.905708,78.081978 114.927872,74.749908 114.900787,71.418243 
	C114.842941,64.302551 111.617233,60.968735 104.593376,60.890888 
	C98.472366,60.823048 92.350006,60.876751 85.656044,60.876751 
	C85.656044,55.351082 85.710739,50.407421 85.642342,45.465458 
	C85.554680,39.131126 82.452415,35.965260 76.128502,35.825726 
	C71.466179,35.722847 66.797081,35.714191 62.135651,35.838326 
	C56.408485,35.990837 53.056713,39.512543 52.888107,45.345173 
	C52.744236,50.321957 52.631878,55.299656 51.778999,60.520462 
	C44.002998,61.029125 36.953583,61.294277 29.904169,61.559433 
	C28.264978,63.114582 26.625786,64.669731 24.533974,66.775848 
	C24.307753,74.258163 24.534149,81.189507 24.760546,88.120857 
	C26.560694,91.829124 29.667025,93.160240 33.622986,93.197655 
	C39.863087,93.256660 46.101921,93.449203 52.642784,94.260178 
	C53.003929,104.298370 53.063587,113.661613 52.890907,123.136650 
	C52.445568,123.514893 52.232571,123.781349 52.019577,124.047806 
z"/>
<path fill="#262425" opacity="1.000000" stroke="none" 
	d="
M53.123245,123.024864 
	C53.063587,113.661613 53.003929,104.298370 53.006989,94.470459 
	C54.041637,94.823059 55.836731,95.619942 55.857536,96.460732 
	C56.055046,104.442047 55.984787,112.431305 55.870789,120.416550 
	C55.861576,121.061958 54.957237,121.694595 53.999413,122.641624 
	C53.529972,122.950081 53.123245,123.024864 53.123245,123.024864 
z"/>
<path fill="#515152" opacity="1.000000" stroke="none" 
	d="
M30.117523,61.948597 
	C36.953583,61.294277 44.002998,61.029125 51.514591,60.837616 
	C51.376720,61.574989 50.772526,62.817928 50.177254,62.813671 
	C43.560997,62.766327 36.946125,62.525993 30.117523,61.948597 
z"/>
<path fill="#212021" opacity="1.000000" stroke="none" 
	d="
M25.093441,87.842896 
	C24.534149,81.189507 24.307753,74.258163 24.483854,67.137451 
	C25.066347,73.820381 25.246342,80.692657 25.093441,87.842896 
z"/>
<path fill="#201D1F" opacity="1.000000" stroke="none" 
	d="
M58.995789,53.617439 
	C58.995667,50.817764 58.995667,48.438843 58.995667,46.059925 
	C59.234905,46.064480 59.474140,46.069035 59.713379,46.073589 
	C59.713379,49.672798 59.713379,53.272007 59.713379,56.871216 
	C59.519787,56.875359 59.326195,56.879501 59.132599,56.883644 
	C59.087040,55.935158 59.041477,54.986675 58.995789,53.617439 
z"/>
<path fill="#353334" opacity="1.000000" stroke="none" 
	d="
M52.890907,123.136650 
	C53.123245,123.024864 53.529972,122.950081 53.734901,122.927856 
	C53.419010,123.435043 52.898186,123.964455 52.198471,124.270836 
	C52.232571,123.781349 52.445568,123.514893 52.890907,123.136650 
z"/>
<path fill="#201D1F" opacity="1.000000" stroke="none" 
	d="
M59.361618,63.899605 
	C59.636314,64.170555 59.749371,64.573387 59.805538,64.983994 
	C59.815250,65.054985 59.583790,65.158958 59.463726,65.247696 
	C59.369389,64.843170 59.275051,64.438644 59.361618,63.899605 
z"/>
</svg>